<?xml version="1.0" encoding="UTF-8"?>
<svg id="Layer_2" data-name="Layer 2" xmlns="http://www.w3.org/2000/svg" viewBox="0 0 241.32 189.28">
  <defs>
    <style>
      .cls-1 {
        fill: #4b63a8;
      }

      .cls-1, .cls-2, .cls-3, .cls-4 {
        stroke-width: 0px;
      }

      .cls-2 {
        fill: #096358;
      }

      .cls-3 {
        fill: #c72f2e;
      }

      .cls-4 {
        fill: #e8bd21;
      }
    </style>
  </defs>
  <g id="Layer_1-2" data-name="Layer 1">
    <g>
      <g>
        <path class="cls-1" d="m18.64,139.54c0,1.79-.22,3.28-.65,4.47-.43,1.19-1.05,2.15-1.85,2.88-.81.73-1.79,1.24-2.96,1.55-1.17.31-2.48.46-3.93.46-3.06,0-5.37-.74-6.92-2.23-1.55-1.49-2.33-3.68-2.33-6.58v-5.34h4.42v5.17c0,1.59.39,2.8,1.17,3.64.78.84,2.05,1.26,3.81,1.26,1.65,0,2.88-.36,3.68-1.07.8-.71,1.2-1.91,1.2-3.59v-9.15h4.39l-.03,8.54Zm-11.6-10.41c0-.66.24-1.22.71-1.7.48-.48,1.04-.71,1.7-.71s1.22.24,1.7.71c.48.48.71,1.04.71,1.7s-.24,1.22-.71,1.7c-.48.48-1.04.71-1.7.71s-1.23-.24-1.7-.71c-.48-.48-.71-1.04-.71-1.7Z"/>
        <path class="cls-1" d="m27.18,119.85v24.29h-4.42v-24.29h4.42Z"/>
        <path class="cls-1" d="m40.56,144.14c-.3,0-.7-.07-1.23-.2-.52-.14-.98-.43-1.36-.88-.02,1.54-.21,2.83-.55,3.86-.34,1.03-.86,1.87-1.54,2.5-.69.63-1.55,1.09-2.6,1.36-1.05.27-2.3.42-3.75.44v-4.15c.93-.02,1.67-.12,2.21-.31.54-.18.95-.47,1.22-.87.27-.4.45-.9.53-1.5s.12-1.32.12-2.16v-10.14h4.42v5.78c0,.45.07.83.22,1.12.15.29.34.53.58.71s.51.31.82.39c.31.08.61.12.9.12.18,0,.35.02.51.05.16.03.3.11.43.24.12.12.22.31.29.56.07.25.1.59.1,1.02,0,.77-.11,1.3-.32,1.6-.22.29-.55.44-1,.44Z"/>
        <path class="cls-1" d="m40.52,144.14c-.18,0-.35-.02-.51-.05s-.3-.11-.43-.24c-.12-.12-.22-.31-.29-.56-.07-.25-.1-.59-.1-1.02,0-.77.11-1.3.32-1.6.22-.29.55-.44,1-.44h5.04c.18,0,.35.02.51.05.16.03.3.11.43.24.12.12.22.31.29.56.07.25.1.59.1,1.02,0,.77-.11,1.3-.32,1.6-.22.29-.55.44-1,.44h-5.04Z"/>
        <path class="cls-1" d="m45.56,144.14c-.18,0-.35-.02-.51-.05s-.3-.11-.43-.24c-.12-.12-.22-.31-.29-.56-.07-.25-.1-.59-.1-1.02,0-.77.11-1.3.32-1.6.22-.29.55-.44,1-.44h5.04c.18,0,.35.02.51.05.16.03.3.11.43.24.12.12.22.31.29.56.07.25.1.59.1,1.02,0,.77-.11,1.3-.32,1.6-.22.29-.55.44-1,.44h-5.04Z"/>
        <path class="cls-1" d="m50.59,144.14c-.18,0-.35-.02-.51-.05s-.3-.11-.43-.24c-.12-.12-.22-.31-.29-.56-.07-.25-.1-.59-.1-1.02,0-.77.11-1.3.32-1.6.22-.29.55-.44,1-.44h5.04c.18,0,.35.02.51.05.16.03.3.11.43.24.12.12.22.31.29.56.07.25.1.59.1,1.02,0,.77-.11,1.3-.32,1.6-.22.29-.55.44-1,.44h-5.04Z"/>
        <path class="cls-1" d="m55.63,144.14c-.18,0-.35-.02-.51-.05s-.3-.11-.43-.24c-.12-.12-.22-.31-.29-.56-.07-.25-.1-.59-.1-1.02,0-.77.11-1.3.32-1.6.22-.29.55-.44,1-.44h5.04c.18,0,.35.02.51.05.16.03.3.11.43.24.12.12.22.31.29.56.07.25.1.59.1,1.02,0,.77-.11,1.3-.32,1.6-.22.29-.55.44-1,.44h-5.04Z"/>
        <path class="cls-1" d="m60.66,144.14c-.18,0-.35-.02-.51-.05s-.3-.11-.43-.24c-.12-.12-.22-.31-.29-.56-.07-.25-.1-.59-.1-1.02,0-.77.11-1.3.32-1.6.22-.29.55-.44,1-.44h5.04c.18,0,.35.02.51.05.16.03.3.11.43.24.12.12.22.31.29.56.07.25.1.59.1,1.02,0,.77-.11,1.3-.32,1.6-.22.29-.55.44-1,.44h-5.04Z"/>
        <path class="cls-1" d="m67.47,140.22c.27,0,.61-.23,1-.68.4-.45.75-1.11,1.07-1.97.5-1.29,1.04-2.36,1.62-3.21.58-.85,1.19-1.53,1.82-2.04.63-.51,1.27-.87,1.91-1.07.63-.2,1.26-.31,1.87-.31.88,0,1.71.17,2.48.51.77.34,1.43.82,1.99,1.43.56.61.99,1.35,1.31,2.21.32.86.48,1.8.48,2.82,0,.16,0,.31-.02.44-.01.14-.02.27-.02.41.29.54.75.92,1.36,1.14s1.19.32,1.73.32c.18,0,.35.02.51.05.16.03.3.11.43.24.12.12.22.31.29.56.07.25.1.59.1,1.02,0,.77-.11,1.3-.32,1.6-.22.29-.55.44-1,.44-.86,0-1.63-.16-2.31-.49-.68-.33-1.27-.86-1.77-1.58-.48.79-1.13,1.41-1.97,1.84-.84.43-1.86.65-3.06.65-.91,0-1.83-.14-2.76-.41-.93-.27-1.89-.74-2.89-1.39-.59.66-1.19,1.05-1.8,1.19s-1.28.2-2.01.2h-1.8c-.18,0-.35-.02-.51-.05s-.3-.11-.43-.24c-.12-.12-.22-.31-.29-.56-.07-.25-.1-.59-.1-1.02,0-.77.11-1.3.32-1.6.22-.29.55-.44,1-.44h1.77Zm11.23-2.42c0-.34-.04-.68-.12-1.02-.08-.34-.2-.64-.37-.9-.17-.26-.4-.48-.68-.65-.28-.17-.63-.26-1.04-.26-.59,0-1.2.32-1.84.95-.64.63-1.13,1.76-1.5,3.37.57.34,1.11.62,1.62.83.51.22,1.06.32,1.65.32.73,0,1.29-.24,1.68-.73.4-.49.6-1.13.6-1.92Z"/>
        <path class="cls-1" d="m86.08,144.14c-.18,0-.35-.02-.51-.05s-.3-.11-.43-.24c-.12-.12-.22-.31-.29-.56-.07-.25-.1-.59-.1-1.02,0-.77.11-1.3.32-1.6.22-.29.55-.44,1-.44h5.04c.18,0,.35.02.51.05.16.03.3.11.43.24.12.12.22.31.29.56.07.25.1.59.1,1.02,0,.77-.11,1.3-.32,1.6-.22.29-.55.44-1,.44h-5.04Z"/>
        <path class="cls-1" d="m93.46,140.22c.45,0,.95-.01,1.5-.03s1.04-.08,1.5-.17l-3.4-4.08c.07-.29.16-.61.29-.94.12-.33.26-.65.39-.95.14-.31.28-.58.44-.83.16-.25.31-.45.44-.61.73-.75,1.6-1.34,2.64-1.79,1.03-.44,2.15-.66,3.35-.66,1.04,0,1.95.14,2.72.41.77.27,1.41.63,1.92,1.07.51.44.89.95,1.14,1.51.25.57.37,1.15.37,1.74,0,.77-.27,1.66-.8,2.65-.53,1-1.31,1.89-2.33,2.69h5.48c.18,0,.35.02.51.05.16.03.3.11.42.24s.22.31.29.56c.07.25.1.59.1,1.02,0,.77-.11,1.3-.32,1.6-.22.29-.55.44-1,.44h-5.48c-.59,0-1.25-.1-1.99-.29-.74-.19-1.41-.52-2.02-.97-1.02.39-2.02.69-3.01.92s-1.99.34-3.01.34h-2.48c-.18,0-.35-.02-.51-.05s-.3-.11-.43-.24c-.12-.12-.22-.31-.29-.56-.07-.25-.1-.59-.1-1.02,0-.77.11-1.3.32-1.6.22-.29.55-.44,1-.44h2.35Zm7.01-6.23c-.79,0-1.46.1-2.01.29-.54.19-.98.4-1.29.63.2.29.44.61.71.95s.56.68.85,1.02c.29.34.58.67.87.99.28.32.55.59.8.82.61-.39,1.1-.89,1.46-1.51.36-.62.54-1.16.54-1.62,0-.16-.02-.33-.07-.53-.05-.19-.14-.36-.27-.51-.14-.15-.33-.27-.6-.37-.26-.1-.6-.15-1-.15Z"/>
        <path class="cls-1" d="m113.02,140.22v-20.38h4.42v24.29h-8.34c-.18,0-.35-.02-.51-.05-.16-.03-.3-.11-.43-.24-.12-.12-.22-.31-.29-.56-.07-.25-.1-.59-.1-1.02,0-.77.11-1.3.32-1.6.22-.29.55-.44,1-.44h3.91Z"/>
        <path class="cls-1" d="m125.99,119.85v24.29h-4.42v-24.29h4.42Z"/>
        <path class="cls-1" d="m148.82,144.14c-.3,0-.7-.07-1.23-.2s-.98-.43-1.36-.88c-.02,1.54-.21,2.83-.55,3.86-.34,1.03-.86,1.87-1.54,2.5-.69.63-1.55,1.09-2.6,1.36-1.05.27-2.3.42-3.75.44v-4.15c.93-.02,1.67-.12,2.21-.31.54-.18.95-.47,1.22-.87.27-.4.45-.9.53-1.5.08-.6.12-1.32.12-2.16v-10.14h4.42v5.78c0,.45.07.83.22,1.12.15.29.34.53.58.71s.51.31.82.39c.31.08.61.12.9.12.18,0,.35.02.51.05.16.03.3.11.43.24.12.12.22.31.29.56.07.25.1.59.1,1.02,0,.77-.11,1.3-.32,1.6-.22.29-.55.44-1,.44Z"/>
        <path class="cls-1" d="m148.78,144.14c-.18,0-.35-.02-.51-.05-.16-.03-.3-.11-.42-.24s-.22-.31-.29-.56c-.07-.25-.1-.59-.1-1.02,0-.77.11-1.3.32-1.6.22-.29.55-.44,1-.44h5.04c.18,0,.35.02.51.05.16.03.3.11.42.24.12.12.22.31.29.56.07.25.1.59.1,1.02,0,.77-.11,1.3-.32,1.6-.22.29-.55.44-1,.44h-5.04Z"/>
        <path class="cls-1" d="m153.82,144.14c-.18,0-.35-.02-.51-.05-.16-.03-.3-.11-.42-.24s-.22-.31-.29-.56c-.07-.25-.1-.59-.1-1.02,0-.77.11-1.3.32-1.6.22-.29.55-.44,1-.44h5.04c.18,0,.35.02.51.05.16.03.3.11.42.24.12.12.22.31.29.56.07.25.1.59.1,1.02,0,.77-.11,1.3-.32,1.6-.22.29-.55.44-1,.44h-5.04Z"/>
        <path class="cls-1" d="m158.85,144.14c-.18,0-.35-.02-.51-.05-.16-.03-.3-.11-.43-.24-.12-.12-.22-.31-.29-.56-.07-.25-.1-.59-.1-1.02,0-.77.11-1.3.32-1.6.22-.29.55-.44,1-.44h5.04c.18,0,.35.02.51.05.16.03.3.11.43.24.12.12.22.31.29.56.07.25.1.59.1,1.02,0,.77-.11,1.3-.32,1.6-.22.29-.55.44-1,.44h-5.04Z"/>
        <path class="cls-1" d="m163.89,144.14c-.18,0-.35-.02-.51-.05-.16-.03-.3-.11-.43-.24-.12-.12-.22-.31-.29-.56-.07-.25-.1-.59-.1-1.02,0-.77.11-1.3.32-1.6.22-.29.55-.44,1-.44h5.04c.18,0,.35.02.51.05.16.03.3.11.43.24.12.12.22.31.29.56.07.25.1.59.1,1.02,0,.77-.11,1.3-.32,1.6-.22.29-.55.44-1,.44h-5.04Z"/>
        <path class="cls-1" d="m172.83,140.22v-9.63h4.42v13.54h-8.33c-.18,0-.35-.02-.51-.05-.16-.03-.3-.11-.42-.24s-.22-.31-.29-.56c-.07-.25-.1-.59-.1-1.02,0-.77.11-1.3.32-1.6.22-.29.55-.44,1-.44h3.91Zm-.54,9.53c0-.66.24-1.22.71-1.7s1.04-.71,1.7-.71,1.23.24,1.7.71c.48.48.71,1.04.71,1.7s-.24,1.23-.71,1.7c-.48.48-1.04.71-1.7.71s-1.22-.24-1.7-.71-.71-1.04-.71-1.7Z"/>
        <path class="cls-1" d="m193.66,144.14c-.31,2.47-1.33,4.27-3.04,5.39-1.71,1.12-4.28,1.68-7.71,1.68h-1.05v-4.15h.78c1.18,0,2.17-.07,2.96-.2.79-.14,1.45-.33,1.96-.6.51-.26.89-.57,1.14-.92.25-.35.41-.75.48-1.21h-2.11c-1,0-1.92-.11-2.76-.34s-1.57-.6-2.18-1.11c-.61-.51-1.09-1.17-1.43-1.97-.34-.81-.51-1.77-.51-2.91,0-.91.15-1.8.46-2.69.31-.88.75-1.68,1.34-2.38s1.31-1.26,2.17-1.68c.86-.42,1.84-.63,2.95-.63,1.24,0,2.29.22,3.14.65.85.43,1.53,1.04,2.05,1.82.52.78.89,1.71,1.12,2.79.23,1.08.34,2.26.34,3.56v.99h2.48c.18,0,.35.02.51.05.16.03.3.11.42.24s.22.31.29.56c.07.25.1.59.1,1.02,0,.77-.11,1.3-.32,1.6-.21.29-.55.44-1,.44h-2.59Zm-9.12-6.74c0,1.09.23,1.83.7,2.23s1.08.59,1.85.59h2.25v-2.04c0-1.09-.17-1.99-.51-2.71-.34-.71-.98-1.07-1.91-1.07-.84,0-1.45.28-1.82.85-.37.57-.56,1.28-.56,2.14Z"/>
        <path class="cls-1" d="m196.28,144.14c-.18,0-.35-.02-.51-.05-.16-.03-.3-.11-.42-.24-.12-.12-.22-.31-.29-.56-.07-.25-.1-.59-.1-1.02,0-.77.11-1.3.32-1.6.22-.29.55-.44,1-.44h5.04c.18,0,.35.02.51.05.16.03.3.11.42.24s.22.31.29.56c.07.25.1.59.1,1.02,0,.77-.11,1.3-.32,1.6-.22.29-.55.44-1,.44h-5.04Z"/>
        <path class="cls-1" d="m203.39,140.22c.77,0,1.31-.12,1.62-.36.31-.24.46-.78.46-1.62v-7.66h4.42v7.28c0,.84.16,1.44.48,1.8.32.36,1.02.54,2.11.54.18,0,.35.02.51.05.16.03.3.11.42.24s.22.31.29.56c.07.25.1.59.1,1.02,0,.77-.11,1.3-.32,1.6-.22.29-.55.44-1,.44-.66,0-1.29-.11-1.91-.32-.61-.21-1.12-.69-1.53-1.41-.27.39-.6.7-.99.94s-.79.41-1.22.53c-.43.11-.88.19-1.34.22-.47.03-.92.05-1.38.05h-2.79c-.18,0-.35-.02-.51-.05-.16-.03-.3-.11-.42-.24-.12-.12-.22-.31-.29-.56-.07-.25-.1-.59-.1-1.02,0-.77.11-1.3.32-1.6.22-.29.55-.44,1-.44h2.08Zm-1.19-15.51c0-.66.24-1.22.71-1.7.48-.48,1.04-.71,1.7-.71s1.23.24,1.7.71c.48.48.71,1.04.71,1.7s-.24,1.22-.71,1.7c-.48.48-1.04.71-1.7.71s-1.22-.24-1.7-.71c-.48-.48-.71-1.04-.71-1.7Zm5.55,0c0-.66.24-1.22.71-1.7s1.04-.71,1.7-.71,1.22.24,1.7.71.71,1.04.71,1.7-.24,1.22-.71,1.7-1.04.71-1.7.71-1.22-.24-1.7-.71-.71-1.04-.71-1.7Z"/>
        <path class="cls-1" d="m212.47,144.14c-.18,0-.35-.02-.51-.05-.16-.03-.3-.11-.42-.24-.12-.12-.22-.31-.29-.56-.07-.25-.1-.59-.1-1.02,0-.77.11-1.3.32-1.6.22-.29.55-.44,1-.44h5.04c.18,0,.35.02.51.05.16.03.3.11.42.24s.22.31.29.56c.07.25.1.59.1,1.02,0,.77-.11,1.3-.32,1.6-.22.29-.55.44-1,.44h-5.04Z"/>
        <path class="cls-1" d="m225.43,140.22c.48,0,.93-.1,1.36-.29.43-.19.65-.58.65-1.17,0-.41-.25-.96-.77-1.65-.51-.69-1.19-1.42-2.02-2.19-.84-.77-1.79-1.54-2.86-2.3-1.07-.76-2.14-1.42-3.23-1.99.16-.75.35-1.37.56-1.85.21-.49.44-.88.66-1.17.23-.29.45-.52.66-.66.21-.15.39-.26.53-.32l11.87-5.24v4.56l-8.03,3.33v.1c1.36.88,2.48,1.76,3.37,2.62.88.86,1.59,1.7,2.13,2.52.53.82.9,1.59,1.11,2.33s.31,1.42.31,2.06c0,.54-.07,1.12-.22,1.74-.15.61-.44,1.18-.87,1.7-.43.52-1.04.95-1.82,1.29-.78.34-1.81.51-3.08.51h-8.23c-.18,0-.35-.02-.51-.05-.16-.03-.3-.11-.42-.24-.12-.12-.22-.31-.29-.56-.07-.25-.1-.59-.1-1.02,0-.77.11-1.3.32-1.6.22-.29.55-.44,1-.44h7.93Z"/>
        <path class="cls-1" d="m241.32,117.8h-6.63v-2.38h1.4c-.11-.16-.19-.39-.24-.68-.05-.29-.07-.53-.07-.71,0-.52.08-.98.25-1.38.17-.4.4-.73.7-.99s.63-.46,1-.6c.37-.14.75-.2,1.14-.2.36,0,.69.03.99.1.29.07.56.15.78.24v2.25c-.59-.14-1.01-.2-1.26-.2-.43,0-.74.1-.94.31-.19.2-.29.45-.29.75,0,.32.09.58.29.8.19.22.55.32,1.09.32h1.78v2.38Zm-.99,2.04v24.29h-4.42v-24.29h4.42Z"/>
        <path class="cls-1" d="m19.75,181.47c0,2.63-.73,4.59-2.2,5.88s-3.5,1.93-6.1,1.93-4.67-.64-6.11-1.92c-1.44-1.28-2.16-3.24-2.16-5.89v-12.08h4.27v12.08c0,.53.04,1.04.14,1.55.09.51.28.96.57,1.36.29.4.69.72,1.21.95.52.24,1.21.35,2.08.35,1.52,0,2.58-.34,3.16-1.02.58-.68.87-1.75.87-3.2v-12.08h4.27v12.08Z"/>
        <path class="cls-1" d="m23.43,169.38h10.48c.87,0,1.66.14,2.35.42.7.28,1.3.67,1.8,1.16.5.49.88,1.06,1.14,1.71.26.65.39,1.34.39,2.07,0,1.14-.24,2.13-.72,2.97-.48.83-1.27,1.47-2.35,1.91v.05c.53.15.96.37,1.31.67s.63.66.84,1.08c.22.42.38.87.48,1.35.1.48.17.97.2,1.46.02.31.04.67.05,1.09.02.42.05.84.1,1.27.05.43.12.84.22,1.24s.25.73.45,1.01h-4.27c-.13-.31-.22-.65-.29-1.02-.06-.37-.12-.76-.16-1.17-.05-.41-.08-.83-.11-1.25-.03-.43-.07-.83-.12-1.21-.15-1.02-.45-1.76-.93-2.23-.47-.47-1.24-.71-2.31-.71h-4.27v7.59h-4.27v-19.43Zm4.27,8.79h4.68c.96,0,1.69-.22,2.19-.65.5-.44.75-1.14.75-2.12s-.25-1.63-.75-2.05c-.5-.43-1.23-.64-2.19-.64h-4.68v5.47Z"/>
        <path class="cls-1" d="m43.08,169.38h9.15c.93,0,1.77.08,2.53.25.76.16,1.42.43,1.96.8.54.37.97.87,1.27,1.48.3.62.45,1.38.45,2.29,0,.96-.23,1.77-.68,2.44-.45.66-1.11,1.2-1.96,1.62,1.2.34,2.09.95,2.68,1.81.59.86.88,1.9.88,3.12,0,.98-.19,1.83-.57,2.54-.38.72-.89,1.3-1.54,1.75-.64.45-1.38.79-2.2,1.01s-1.67.33-2.54.33h-9.42v-19.43Zm4.27,7.87h4.33c.76,0,1.39-.18,1.88-.54.49-.36.73-.95.73-1.77,0-.45-.08-.83-.24-1.12-.16-.29-.38-.52-.65-.68-.27-.16-.59-.28-.94-.34-.35-.06-.72-.1-1.1-.1h-4v4.55Zm0,8.25h4.57c.42,0,.82-.04,1.2-.12.38-.08.72-.22,1.01-.41.29-.19.52-.45.69-.78.17-.33.26-.74.26-1.25,0-1-.28-1.71-.84-2.14-.56-.43-1.31-.64-2.23-.64h-4.65v5.33Z"/>
        <path class="cls-1" d="m67.55,169.38h4.38l7.27,19.43h-4.44l-1.47-4.33h-7.27l-1.52,4.33h-4.33l7.38-19.43Zm-.41,11.92h5.04l-2.45-7.13h-.05l-2.53,7.13Z"/>
        <path class="cls-1" d="m80.89,169.38h4.25l8.11,13.04h.05v-13.04h4v19.43h-4.27l-8.08-13.01h-.05v13.01h-4v-19.43Z"/>
        <path class="cls-1" d="m107.78,179.18c0-1.43.22-2.78.65-4.03.44-1.25,1.06-2.34,1.88-3.27.82-.93,1.81-1.65,2.99-2.18,1.18-.53,2.52-.79,4.03-.79s2.85.26,4.03.79c1.18.53,2.18,1.25,2.99,2.18s1.44,2.01,1.88,3.27c.44,1.25.65,2.59.65,4.03s-.22,2.71-.65,3.95c-.44,1.23-1.06,2.3-1.88,3.21s-1.81,1.62-2.99,2.15c-1.18.53-2.52.79-4.03.79s-2.85-.26-4.03-.79c-1.18-.53-2.18-1.24-2.99-2.15-.82-.91-1.44-1.98-1.88-3.21-.44-1.23-.65-2.55-.65-3.95Zm4.27,0c0,.82.1,1.61.29,2.38.19.77.49,1.47.91,2.08.42.62.96,1.11,1.63,1.48.67.37,1.49.56,2.45.56s1.78-.19,2.45-.56c.67-.37,1.21-.87,1.63-1.48.42-.62.72-1.31.91-2.08.19-.77.29-1.56.29-2.38s-.09-1.68-.29-2.48c-.19-.8-.5-1.51-.91-2.14-.42-.63-.96-1.12-1.63-1.5-.67-.37-1.49-.56-2.45-.56s-1.78.19-2.45.56c-.67.37-1.22.87-1.63,1.5-.42.63-.72,1.34-.91,2.14-.19.8-.29,1.62-.29,2.48Z"/>
        <path class="cls-1" d="m142.75,175.91c-.07-.49-.24-.94-.49-1.35s-.57-.77-.95-1.08c-.38-.31-.81-.55-1.29-.72s-.98-.26-1.51-.26c-.96,0-1.78.19-2.45.56-.67.37-1.22.87-1.63,1.5-.42.63-.72,1.34-.91,2.14-.19.8-.29,1.62-.29,2.48s.1,1.61.29,2.38c.19.77.49,1.47.91,2.08.42.62.96,1.11,1.63,1.48.67.37,1.49.56,2.45.56,1.31,0,2.33-.4,3.06-1.21.73-.81,1.18-1.86,1.35-3.14h4.14c-.11,1.22-.39,2.31-.84,3.29-.45.98-1.05,1.81-1.8,2.5s-1.62,1.22-2.61,1.59c-1,.37-2.1.56-3.29.56-1.51,0-2.85-.26-4.03-.79-1.18-.53-2.18-1.24-2.99-2.15-.82-.91-1.44-1.98-1.88-3.21-.44-1.23-.65-2.55-.65-3.95s.22-2.78.65-4.03c.44-1.25,1.06-2.34,1.88-3.27.82-.93,1.81-1.65,2.99-2.18,1.18-.53,2.52-.79,4.03-.79,1.07,0,2.08.15,3.04.46.95.31,1.81.76,2.56,1.35.75.59,1.37,1.32,1.86,2.19s.8,1.87.93,2.99h-4.14Z"/>
        <path class="cls-1" d="m154.27,172.97h-5.82v-3.59h15.92v3.59h-5.82v15.84h-4.27v-15.84Z"/>
        <path class="cls-1" d="m165.75,179.18c0-1.43.22-2.78.65-4.03.44-1.25,1.06-2.34,1.88-3.27.82-.93,1.81-1.65,2.99-2.18,1.18-.53,2.52-.79,4.03-.79s2.85.26,4.03.79c1.18.53,2.18,1.25,2.99,2.18s1.44,2.01,1.88,3.27c.44,1.25.65,2.59.65,4.03s-.22,2.71-.65,3.95c-.44,1.23-1.06,2.3-1.88,3.21s-1.81,1.62-2.99,2.15c-1.18.53-2.52.79-4.03.79s-2.85-.26-4.03-.79c-1.18-.53-2.18-1.24-2.99-2.15-.82-.91-1.44-1.98-1.88-3.21-.44-1.23-.65-2.55-.65-3.95Zm4.27,0c0,.82.1,1.61.29,2.38.19.77.49,1.47.91,2.08.42.62.96,1.11,1.63,1.48.67.37,1.49.56,2.45.56s1.78-.19,2.45-.56c.67-.37,1.21-.87,1.63-1.48.42-.62.72-1.31.91-2.08.19-.77.29-1.56.29-2.38s-.09-1.68-.29-2.48c-.19-.8-.5-1.51-.91-2.14-.42-.63-.96-1.12-1.63-1.5-.67-.37-1.49-.56-2.45-.56s-1.78.19-2.45.56c-.67.37-1.22.87-1.63,1.5-.42.63-.72,1.34-.91,2.14-.19.8-.29,1.62-.29,2.48Z"/>
        <path class="cls-1" d="m187.77,169.38h9.15c.93,0,1.77.08,2.53.25.76.16,1.42.43,1.96.8.54.37.97.87,1.27,1.48.3.62.45,1.38.45,2.29,0,.96-.23,1.77-.68,2.44-.45.66-1.11,1.2-1.96,1.62,1.2.34,2.09.95,2.68,1.81.59.86.88,1.9.88,3.12,0,.98-.19,1.83-.57,2.54s-.89,1.3-1.54,1.75c-.64.45-1.38.79-2.2,1.01-.83.22-1.67.33-2.54.33h-9.42v-19.43Zm4.27,7.87h4.33c.76,0,1.39-.18,1.88-.54.49-.36.73-.95.73-1.77,0-.45-.08-.83-.25-1.12-.16-.29-.38-.52-.65-.68-.27-.16-.58-.28-.94-.34-.35-.06-.72-.1-1.1-.1h-4v4.55Zm0,8.25h4.57c.42,0,.82-.04,1.2-.12.38-.08.72-.22,1.01-.41.29-.19.52-.45.69-.78.17-.33.26-.74.26-1.25,0-1-.28-1.71-.84-2.14-.56-.43-1.31-.64-2.23-.64h-4.65v5.33Z"/>
        <path class="cls-1" d="m206.93,169.38h14.53v3.59h-10.26v4.16h9.42v3.32h-9.42v4.76h10.48v3.59h-14.75v-19.43Z"/>
        <path class="cls-1" d="m224.57,169.38h10.48c.87,0,1.66.14,2.35.42.7.28,1.3.67,1.8,1.16.5.49.88,1.06,1.14,1.71.26.65.39,1.34.39,2.07,0,1.14-.24,2.13-.72,2.97-.48.83-1.27,1.47-2.35,1.91v.05c.53.15.96.37,1.31.67s.63.66.84,1.08c.22.42.38.87.48,1.35s.17.97.2,1.46c.02.31.04.67.05,1.09.02.42.05.84.09,1.27.04.43.12.84.22,1.24s.25.73.45,1.01h-4.27c-.13-.31-.22-.65-.29-1.02-.06-.37-.12-.76-.16-1.17-.04-.41-.08-.83-.11-1.25-.03-.43-.07-.83-.12-1.21-.15-1.02-.45-1.76-.92-2.23-.47-.47-1.24-.71-2.31-.71h-4.27v7.59h-4.27v-19.43Zm4.27,8.79h4.68c.96,0,1.69-.22,2.19-.65s.75-1.14.75-2.12-.25-1.63-.75-2.05c-.5-.43-1.23-.64-2.19-.64h-4.68v5.47Z"/>
      </g>
      <g>
        <g>
          <rect class="cls-3" x="59.49" y="16.71" width="27.81" height="27.81"/>
          <path class="cls-4" d="m131.83,44.52h0c0,24.59-19.93,44.52-44.52,44.52h0v-44.52h44.52Z"/>
          <polygon class="cls-2" points="131.83 44.52 87.3 0 87.3 0 131.83 0 131.83 44.52"/>
        </g>
        <path class="cls-1" d="m182.85,0c-24.59,0-44.52,19.93-44.52,44.52h0c0,24.59,19.93,44.52,44.52,44.52h0V0h0Z"/>
      </g>
    </g>
  </g>
</svg>