<?xml version="1.0" encoding="utf-8"?>
<!-- Generator: Adobe Illustrator 27.8.1, SVG Export Plug-In . SVG Version: 6.00 Build 0)  -->
<svg version="1.1" id="Layer_2_00000092440553893277244200000003661193861420210065_"
	 xmlns="http://www.w3.org/2000/svg" xmlns:xlink="http://www.w3.org/1999/xlink" x="0px" y="0px" viewBox="0 0 241.3 189.3"
	 style="enable-background:new 0 0 241.3 189.3;" xml:space="preserve">
<style type="text/css">
	.st0{fill:#2E1D69;}
	.st1{fill:#0DBECC;}
	.st2{fill:#FF4295;}
	.st3{fill:#F58920;}
</style>
<g>
	<g>
		<path class="st0" d="M18.6,139.5c0,1.8-0.2,3.3-0.6,4.5s-1,2.1-1.9,2.9c-0.8,0.7-1.8,1.2-3,1.6s-2.5,0.5-3.9,0.5
			c-3.1,0-5.4-0.7-6.9-2.2C0.8,145.2,0,143,0,140.1v-5.3h4.4v5.2c0,1.6,0.4,2.8,1.2,3.6s2.1,1.3,3.8,1.3c1.6,0,2.9-0.4,3.7-1.1
			s1.2-1.9,1.2-3.6V131h4.4L18.6,139.5L18.6,139.5z M7,129.1c0-0.7,0.2-1.2,0.7-1.7c0.5-0.5,1-0.7,1.7-0.7s1.2,0.2,1.7,0.7
			c0.5,0.5,0.7,1,0.7,1.7s-0.2,1.2-0.7,1.7c-0.5,0.5-1,0.7-1.7,0.7s-1.2-0.2-1.7-0.7C7.3,130.3,7,129.8,7,129.1z"/>
		<path class="st0" d="M27.2,119.8v24.3h-4.4v-24.3H27.2z"/>
		<path class="st0" d="M40.6,144.1c-0.3,0-0.7-0.1-1.2-0.2c-0.5-0.1-1-0.4-1.4-0.9c0,1.5-0.2,2.8-0.5,3.9s-0.9,1.9-1.5,2.5
			c-0.7,0.6-1.5,1.1-2.6,1.4s-2.3,0.4-3.8,0.4v-4.1c0.9,0,1.7-0.1,2.2-0.3c0.5-0.2,1-0.5,1.2-0.9s0.5-0.9,0.5-1.5s0.1-1.3,0.1-2.2
			v-10.1H38v5.8c0,0.4,0.1,0.8,0.2,1.1s0.3,0.5,0.6,0.7s0.5,0.3,0.8,0.4s0.6,0.1,0.9,0.1c0.2,0,0.3,0,0.5,0.1s0.3,0.1,0.4,0.2
			c0.1,0.1,0.2,0.3,0.3,0.6s0.1,0.6,0.1,1c0,0.8-0.1,1.3-0.3,1.6C41.3,144,41,144.1,40.6,144.1L40.6,144.1z"/>
		<path class="st0" d="M40.5,144.1c-0.2,0-0.3,0-0.5-0.1s-0.3-0.1-0.4-0.2c-0.1-0.1-0.2-0.3-0.3-0.6s-0.1-0.6-0.1-1
			c0-0.8,0.1-1.3,0.3-1.6c0.2-0.3,0.5-0.4,1-0.4h5c0.2,0,0.3,0,0.5,0.1s0.3,0.1,0.4,0.2c0.1,0.1,0.2,0.3,0.3,0.6s0.1,0.6,0.1,1
			c0,0.8-0.1,1.3-0.3,1.6c-0.2,0.3-0.5,0.4-1,0.4H40.5z"/>
		<path class="st0" d="M45.6,144.1c-0.2,0-0.3,0-0.5-0.1s-0.3-0.1-0.4-0.2c-0.1-0.1-0.2-0.3-0.3-0.6s-0.1-0.6-0.1-1
			c0-0.8,0.1-1.3,0.3-1.6c0.2-0.3,0.5-0.4,1-0.4h5c0.2,0,0.3,0,0.5,0.1s0.3,0.1,0.4,0.2c0.1,0.1,0.2,0.3,0.3,0.6s0.1,0.6,0.1,1
			c0,0.8-0.1,1.3-0.3,1.6c-0.2,0.3-0.5,0.4-1,0.4H45.6z"/>
		<path class="st0" d="M50.6,144.1c-0.2,0-0.3,0-0.5-0.1s-0.3-0.1-0.4-0.2c-0.1-0.1-0.2-0.3-0.3-0.6s-0.1-0.6-0.1-1
			c0-0.8,0.1-1.3,0.3-1.6c0.2-0.3,0.5-0.4,1-0.4h5c0.2,0,0.3,0,0.5,0.1s0.3,0.1,0.4,0.2c0.1,0.1,0.2,0.3,0.3,0.6s0.1,0.6,0.1,1
			c0,0.8-0.1,1.3-0.3,1.6c-0.2,0.3-0.5,0.4-1,0.4H50.6z"/>
		<path class="st0" d="M55.6,144.1c-0.2,0-0.3,0-0.5-0.1s-0.3-0.1-0.4-0.2c-0.1-0.1-0.2-0.3-0.3-0.6s-0.1-0.6-0.1-1
			c0-0.8,0.1-1.3,0.3-1.6c0.2-0.3,0.5-0.4,1-0.4h5c0.2,0,0.3,0,0.5,0.1s0.3,0.1,0.4,0.2c0.1,0.1,0.2,0.3,0.3,0.6s0.1,0.6,0.1,1
			c0,0.8-0.1,1.3-0.3,1.6c-0.2,0.3-0.5,0.4-1,0.4H55.6z"/>
		<path class="st0" d="M60.7,144.1c-0.2,0-0.3,0-0.5-0.1s-0.3-0.1-0.4-0.2c-0.1-0.1-0.2-0.3-0.3-0.6s-0.1-0.6-0.1-1
			c0-0.8,0.1-1.3,0.3-1.6c0.2-0.3,0.5-0.4,1-0.4h5c0.2,0,0.3,0,0.5,0.1s0.3,0.1,0.4,0.2c0.1,0.1,0.2,0.3,0.3,0.6s0.1,0.6,0.1,1
			c0,0.8-0.1,1.3-0.3,1.6c-0.2,0.3-0.6,0.4-1,0.4C65.7,144.1,60.7,144.1,60.7,144.1z"/>
		<path class="st0" d="M67.5,140.2c0.3,0,0.6-0.2,1-0.7c0.4-0.4,0.8-1.1,1.1-2c0.5-1.3,1-2.4,1.6-3.2s1.2-1.5,1.8-2s1.3-0.9,1.9-1.1
			c0.6-0.2,1.3-0.3,1.9-0.3c0.9,0,1.7,0.2,2.5,0.5c0.8,0.3,1.4,0.8,2,1.4c0.6,0.6,1,1.4,1.3,2.2s0.5,1.8,0.5,2.8c0,0.2,0,0.3,0,0.4
			c0,0.1,0,0.3,0,0.4c0.3,0.5,0.8,0.9,1.4,1.1s1.2,0.3,1.7,0.3c0.2,0,0.3,0,0.5,0.1s0.3,0.1,0.4,0.2c0.1,0.1,0.2,0.3,0.3,0.6
			s0.1,0.6,0.1,1c0,0.8-0.1,1.3-0.3,1.6c-0.2,0.3-0.6,0.4-1,0.4c-0.9,0-1.6-0.2-2.3-0.5s-1.3-0.9-1.8-1.6c-0.5,0.8-1.1,1.4-2,1.8
			c-0.8,0.4-1.9,0.6-3.1,0.6c-0.9,0-1.8-0.1-2.8-0.4s-1.9-0.7-2.9-1.4c-0.6,0.7-1.2,1.1-1.8,1.2s-1.3,0.2-2,0.2h-1.8
			c-0.2,0-0.3,0-0.5-0.1s-0.3-0.1-0.4-0.2c-0.1-0.1-0.2-0.3-0.3-0.6s-0.1-0.6-0.1-1c0-0.8,0.1-1.3,0.3-1.6c0.2-0.3,0.6-0.4,1-0.4
			L67.5,140.2L67.5,140.2z M78.7,137.8c0-0.3,0-0.7-0.1-1c-0.1-0.3-0.2-0.6-0.4-0.9c-0.2-0.3-0.4-0.5-0.7-0.6s-0.6-0.3-1-0.3
			c-0.6,0-1.2,0.3-1.8,0.9c-0.6,0.6-1.1,1.8-1.5,3.4c0.6,0.3,1.1,0.6,1.6,0.8c0.5,0.2,1.1,0.3,1.7,0.3c0.7,0,1.3-0.2,1.7-0.7
			C78.5,139.2,78.7,138.6,78.7,137.8L78.7,137.8z"/>
		<path class="st0" d="M86.1,144.1c-0.2,0-0.3,0-0.5-0.1s-0.3-0.1-0.4-0.2c-0.1-0.1-0.2-0.3-0.3-0.6s-0.1-0.6-0.1-1
			c0-0.8,0.1-1.3,0.3-1.6c0.2-0.3,0.6-0.4,1-0.4h5c0.2,0,0.3,0,0.5,0.1s0.3,0.1,0.4,0.2c0.1,0.1,0.2,0.3,0.3,0.6s0.1,0.6,0.1,1
			c0,0.8-0.1,1.3-0.3,1.6c-0.2,0.3-0.6,0.4-1,0.4H86.1z"/>
		<path class="st0" d="M93.5,140.2c0.4,0,0.9,0,1.5,0s1-0.1,1.5-0.2l-3.4-4.1c0.1-0.3,0.2-0.6,0.3-0.9c0.1-0.3,0.3-0.6,0.4-0.9
			c0.1-0.3,0.3-0.6,0.4-0.8s0.3-0.4,0.4-0.6c0.7-0.8,1.6-1.3,2.6-1.8c1-0.4,2.2-0.7,3.3-0.7c1,0,1.9,0.1,2.7,0.4
			c0.8,0.3,1.4,0.6,1.9,1.1c0.5,0.4,0.9,0.9,1.1,1.5c0.2,0.6,0.4,1.1,0.4,1.7c0,0.8-0.3,1.7-0.8,2.6c-0.5,1-1.3,1.9-2.3,2.7h5.5
			c0.2,0,0.3,0,0.5,0.1s0.3,0.1,0.4,0.2s0.2,0.3,0.3,0.6s0.1,0.6,0.1,1c0,0.8-0.1,1.3-0.3,1.6c-0.2,0.3-0.6,0.4-1,0.4h-5.5
			c-0.6,0-1.2-0.1-2-0.3c-0.7-0.2-1.4-0.5-2-1c-1,0.4-2,0.7-3,0.9s-2,0.3-3,0.3h-2.5c-0.2,0-0.3,0-0.5-0.1s-0.3-0.1-0.4-0.2
			c-0.1-0.1-0.2-0.3-0.3-0.6s-0.1-0.6-0.1-1c0-0.8,0.1-1.3,0.3-1.6c0.2-0.3,0.6-0.4,1-0.4L93.5,140.2L93.5,140.2z M100.5,134
			c-0.8,0-1.5,0.1-2,0.3c-0.5,0.2-1,0.4-1.3,0.6c0.2,0.3,0.4,0.6,0.7,0.9s0.6,0.7,0.8,1c0.3,0.3,0.6,0.7,0.9,1
			c0.3,0.3,0.6,0.6,0.8,0.8c0.6-0.4,1.1-0.9,1.5-1.5s0.5-1.2,0.5-1.6c0-0.2,0-0.3-0.1-0.5c-0.1-0.2-0.1-0.4-0.3-0.5
			c-0.1-0.1-0.3-0.3-0.6-0.4C101.2,134.1,100.9,134,100.5,134L100.5,134z"/>
		<path class="st0" d="M113,140.2v-20.4h4.4v24.3h-8.3c-0.2,0-0.3,0-0.5-0.1s-0.3-0.1-0.4-0.2c-0.1-0.1-0.2-0.3-0.3-0.6
			s-0.1-0.6-0.1-1c0-0.8,0.1-1.3,0.3-1.6c0.2-0.3,0.6-0.4,1-0.4L113,140.2L113,140.2z"/>
		<path class="st0" d="M126,119.8v24.3h-4.4v-24.3H126z"/>
		<path class="st0" d="M148.8,144.1c-0.3,0-0.7-0.1-1.2-0.2s-1-0.4-1.4-0.9c0,1.5-0.2,2.8-0.6,3.9s-0.9,1.9-1.5,2.5
			c-0.7,0.6-1.6,1.1-2.6,1.4s-2.3,0.4-3.8,0.4v-4.1c0.9,0,1.7-0.1,2.2-0.3c0.5-0.2,0.9-0.5,1.2-0.9s0.4-0.9,0.5-1.5s0.1-1.3,0.1-2.2
			v-10.1h4.4v5.8c0,0.4,0.1,0.8,0.2,1.1s0.3,0.5,0.6,0.7s0.5,0.3,0.8,0.4c0.3,0.1,0.6,0.1,0.9,0.1c0.2,0,0.4,0,0.5,0.1
			c0.2,0,0.3,0.1,0.4,0.2c0.1,0.1,0.2,0.3,0.3,0.6c0.1,0.2,0.1,0.6,0.1,1c0,0.8-0.1,1.3-0.3,1.6C149.6,144,149.3,144.1,148.8,144.1
			L148.8,144.1z"/>
		<path class="st0" d="M148.8,144.1c-0.2,0-0.4,0-0.5-0.1c-0.2,0-0.3-0.1-0.4-0.2s-0.2-0.3-0.3-0.6c-0.1-0.2-0.1-0.6-0.1-1
			c0-0.8,0.1-1.3,0.3-1.6c0.2-0.3,0.6-0.4,1-0.4h5c0.2,0,0.4,0,0.5,0.1c0.2,0,0.3,0.1,0.4,0.2c0.1,0.1,0.2,0.3,0.3,0.6
			c0.1,0.2,0.1,0.6,0.1,1c0,0.8-0.1,1.3-0.3,1.6c-0.2,0.3-0.6,0.4-1,0.4H148.8z"/>
		<path class="st0" d="M153.8,144.1c-0.2,0-0.4,0-0.5-0.1c-0.2,0-0.3-0.1-0.4-0.2s-0.2-0.3-0.3-0.6c-0.1-0.2-0.1-0.6-0.1-1
			c0-0.8,0.1-1.3,0.3-1.6c0.2-0.3,0.6-0.4,1-0.4h5c0.2,0,0.4,0,0.5,0.1c0.2,0,0.3,0.1,0.4,0.2c0.1,0.1,0.2,0.3,0.3,0.6
			c0.1,0.2,0.1,0.6,0.1,1c0,0.8-0.1,1.3-0.3,1.6c-0.2,0.3-0.6,0.4-1,0.4H153.8z"/>
		<path class="st0" d="M158.9,144.1c-0.2,0-0.4,0-0.5-0.1c-0.2,0-0.3-0.1-0.4-0.2c-0.1-0.1-0.2-0.3-0.3-0.6c-0.1-0.2-0.1-0.6-0.1-1
			c0-0.8,0.1-1.3,0.3-1.6c0.2-0.3,0.6-0.4,1-0.4h5c0.2,0,0.4,0,0.5,0.1c0.2,0,0.3,0.1,0.4,0.2c0.1,0.1,0.2,0.3,0.3,0.6
			c0.1,0.2,0.1,0.6,0.1,1c0,0.8-0.1,1.3-0.3,1.6c-0.2,0.3-0.6,0.4-1,0.4H158.9z"/>
		<path class="st0" d="M163.9,144.1c-0.2,0-0.4,0-0.5-0.1c-0.2,0-0.3-0.1-0.4-0.2c-0.1-0.1-0.2-0.3-0.3-0.6c-0.1-0.2-0.1-0.6-0.1-1
			c0-0.8,0.1-1.3,0.3-1.6c0.2-0.3,0.6-0.4,1-0.4h5c0.2,0,0.4,0,0.5,0.1c0.2,0,0.3,0.1,0.4,0.2c0.1,0.1,0.2,0.3,0.3,0.6
			c0.1,0.2,0.1,0.6,0.1,1c0,0.8-0.1,1.3-0.3,1.6c-0.2,0.3-0.6,0.4-1,0.4H163.9z"/>
		<path class="st0" d="M172.8,140.2v-9.6h4.4v13.5h-8.3c-0.2,0-0.4,0-0.5-0.1c-0.2,0-0.3-0.1-0.4-0.2s-0.2-0.3-0.3-0.6
			c-0.1-0.2-0.1-0.6-0.1-1c0-0.8,0.1-1.3,0.3-1.6c0.2-0.3,0.6-0.4,1-0.4L172.8,140.2L172.8,140.2z M172.3,149.8
			c0-0.7,0.2-1.2,0.7-1.7s1-0.7,1.7-0.7s1.2,0.2,1.7,0.7c0.5,0.5,0.7,1,0.7,1.7s-0.2,1.2-0.7,1.7c-0.5,0.5-1,0.7-1.7,0.7
			s-1.2-0.2-1.7-0.7S172.3,150.4,172.3,149.8z"/>
		<path class="st0" d="M193.7,144.1c-0.3,2.5-1.3,4.3-3,5.4c-1.7,1.1-4.3,1.7-7.7,1.7h-1.1v-4.1h0.8c1.2,0,2.2-0.1,3-0.2
			c0.8-0.1,1.4-0.3,2-0.6c0.5-0.3,0.9-0.6,1.1-0.9c0.2-0.4,0.4-0.8,0.5-1.2h-2.1c-1,0-1.9-0.1-2.8-0.3s-1.6-0.6-2.2-1.1
			c-0.6-0.5-1.1-1.2-1.4-2c-0.3-0.8-0.5-1.8-0.5-2.9c0-0.9,0.1-1.8,0.5-2.7c0.3-0.9,0.8-1.7,1.3-2.4s1.3-1.3,2.2-1.7
			s1.8-0.6,2.9-0.6c1.2,0,2.3,0.2,3.1,0.6s1.5,1,2.1,1.8c0.5,0.8,0.9,1.7,1.1,2.8c0.2,1.1,0.3,2.3,0.3,3.6v1h2.5
			c0.2,0,0.4,0,0.5,0.1c0.2,0,0.3,0.1,0.4,0.2s0.2,0.3,0.3,0.6c0.1,0.2,0.1,0.6,0.1,1c0,0.8-0.1,1.3-0.3,1.6c-0.2,0.3-0.6,0.4-1,0.4
			H193.7L193.7,144.1z M184.5,137.4c0,1.1,0.2,1.8,0.7,2.2s1.1,0.6,1.9,0.6h2.2v-2c0-1.1-0.2-2-0.5-2.7c-0.3-0.7-1-1.1-1.9-1.1
			c-0.8,0-1.4,0.3-1.8,0.9C184.7,135.8,184.5,136.5,184.5,137.4L184.5,137.4z"/>
		<path class="st0" d="M196.3,144.1c-0.2,0-0.4,0-0.5-0.1c-0.2,0-0.3-0.1-0.4-0.2c-0.1-0.1-0.2-0.3-0.3-0.6c-0.1-0.2-0.1-0.6-0.1-1
			c0-0.8,0.1-1.3,0.3-1.6c0.2-0.3,0.6-0.4,1-0.4h5c0.2,0,0.4,0,0.5,0.1c0.2,0,0.3,0.1,0.4,0.2s0.2,0.3,0.3,0.6
			c0.1,0.2,0.1,0.6,0.1,1c0,0.8-0.1,1.3-0.3,1.6c-0.2,0.3-0.6,0.4-1,0.4H196.3z"/>
		<path class="st0" d="M203.4,140.2c0.8,0,1.3-0.1,1.6-0.4s0.5-0.8,0.5-1.6v-7.7h4.4v7.3c0,0.8,0.2,1.4,0.5,1.8
			c0.3,0.4,1,0.5,2.1,0.5c0.2,0,0.4,0,0.5,0.1c0.2,0,0.3,0.1,0.4,0.2s0.2,0.3,0.3,0.6c0.1,0.2,0.1,0.6,0.1,1c0,0.8-0.1,1.3-0.3,1.6
			c-0.2,0.3-0.6,0.4-1,0.4c-0.7,0-1.3-0.1-1.9-0.3c-0.6-0.2-1.1-0.7-1.5-1.4c-0.3,0.4-0.6,0.7-1,0.9s-0.8,0.4-1.2,0.5
			c-0.4,0.1-0.9,0.2-1.3,0.2c-0.5,0-0.9,0.1-1.4,0.1h-2.8c-0.2,0-0.4,0-0.5-0.1c-0.2,0-0.3-0.1-0.4-0.2c-0.1-0.1-0.2-0.3-0.3-0.6
			c-0.1-0.2-0.1-0.6-0.1-1c0-0.8,0.1-1.3,0.3-1.6c0.2-0.3,0.6-0.4,1-0.4L203.4,140.2L203.4,140.2z M202.2,124.7
			c0-0.7,0.2-1.2,0.7-1.7c0.5-0.5,1-0.7,1.7-0.7s1.2,0.2,1.7,0.7c0.5,0.5,0.7,1,0.7,1.7s-0.2,1.2-0.7,1.7c-0.5,0.5-1,0.7-1.7,0.7
			s-1.2-0.2-1.7-0.7C202.4,125.9,202.2,125.4,202.2,124.7z M207.8,124.7c0-0.7,0.2-1.2,0.7-1.7s1-0.7,1.7-0.7s1.2,0.2,1.7,0.7
			s0.7,1,0.7,1.7s-0.2,1.2-0.7,1.7s-1,0.7-1.7,0.7s-1.2-0.2-1.7-0.7S207.8,125.4,207.8,124.7z"/>
		<path class="st0" d="M212.5,144.1c-0.2,0-0.4,0-0.5-0.1c-0.2,0-0.3-0.1-0.4-0.2c-0.1-0.1-0.2-0.3-0.3-0.6c-0.1-0.2-0.1-0.6-0.1-1
			c0-0.8,0.1-1.3,0.3-1.6c0.2-0.3,0.6-0.4,1-0.4h5c0.2,0,0.4,0,0.5,0.1c0.2,0,0.3,0.1,0.4,0.2s0.2,0.3,0.3,0.6
			c0.1,0.2,0.1,0.6,0.1,1c0,0.8-0.1,1.3-0.3,1.6c-0.2,0.3-0.6,0.4-1,0.4H212.5z"/>
		<path class="st0" d="M225.4,140.2c0.5,0,0.9-0.1,1.4-0.3c0.4-0.2,0.6-0.6,0.6-1.2c0-0.4-0.2-1-0.8-1.6c-0.5-0.7-1.2-1.4-2-2.2
			c-0.8-0.8-1.8-1.5-2.9-2.3c-1.1-0.8-2.1-1.4-3.2-2c0.2-0.8,0.4-1.4,0.6-1.9c0.2-0.5,0.4-0.9,0.7-1.2c0.2-0.3,0.4-0.5,0.7-0.7
			c0.2-0.2,0.4-0.3,0.5-0.3l11.9-5.2v4.6l-8,3.3v0.1c1.4,0.9,2.5,1.8,3.4,2.6c0.9,0.9,1.6,1.7,2.1,2.5c0.5,0.8,0.9,1.6,1.1,2.3
			s0.3,1.4,0.3,2.1c0,0.5-0.1,1.1-0.2,1.7c-0.1,0.6-0.4,1.2-0.9,1.7s-1,0.9-1.8,1.3c-0.8,0.3-1.8,0.5-3.1,0.5h-8.2
			c-0.2,0-0.4,0-0.5-0.1c-0.2,0-0.3-0.1-0.4-0.2c-0.1-0.1-0.2-0.3-0.3-0.6c-0.1-0.2-0.1-0.6-0.1-1c0-0.8,0.1-1.3,0.3-1.6
			c0.2-0.3,0.6-0.4,1-0.4L225.4,140.2L225.4,140.2z"/>
		<path class="st0" d="M241.3,117.8h-6.6v-2.4h1.4c-0.1-0.2-0.2-0.4-0.2-0.7s-0.1-0.5-0.1-0.7c0-0.5,0.1-1,0.2-1.4
			c0.2-0.4,0.4-0.7,0.7-1s0.6-0.5,1-0.6s0.8-0.2,1.1-0.2c0.4,0,0.7,0,1,0.1c0.3,0.1,0.6,0.2,0.8,0.2v2.2c-0.6-0.1-1-0.2-1.3-0.2
			c-0.4,0-0.7,0.1-0.9,0.3c-0.2,0.2-0.3,0.4-0.3,0.8c0,0.3,0.1,0.6,0.3,0.8c0.2,0.2,0.6,0.3,1.1,0.3h1.8L241.3,117.8L241.3,117.8z
			 M240.3,119.8v24.3h-4.4v-24.3H240.3z"/>
		<path class="st0" d="M19.8,181.5c0,2.6-0.7,4.6-2.2,5.9s-3.5,1.9-6.1,1.9s-4.7-0.6-6.1-1.9s-2.2-3.2-2.2-5.9v-12.1h4.3v12.1
			c0,0.5,0,1,0.1,1.6c0.1,0.5,0.3,1,0.6,1.4s0.7,0.7,1.2,0.9c0.5,0.2,1.2,0.4,2.1,0.4c1.5,0,2.6-0.3,3.2-1c0.6-0.7,0.9-1.8,0.9-3.2
			v-12.1h4.3L19.8,181.5L19.8,181.5z"/>
		<path class="st0" d="M23.4,169.4h10.5c0.9,0,1.7,0.1,2.3,0.4c0.7,0.3,1.3,0.7,1.8,1.2s0.9,1.1,1.1,1.7c0.3,0.6,0.4,1.3,0.4,2.1
			c0,1.1-0.2,2.1-0.7,3c-0.5,0.8-1.3,1.5-2.3,1.9v0.1c0.5,0.1,1,0.4,1.3,0.7s0.6,0.7,0.8,1.1c0.2,0.4,0.4,0.9,0.5,1.4
			c0.1,0.5,0.2,1,0.2,1.5c0,0.3,0,0.7,0,1.1c0,0.4,0,0.8,0.1,1.3c0,0.4,0.1,0.8,0.2,1.2s0.2,0.7,0.5,1h-4.3c-0.1-0.3-0.2-0.6-0.3-1
			c-0.1-0.4-0.1-0.8-0.2-1.2c0-0.4-0.1-0.8-0.1-1.2c0-0.4-0.1-0.8-0.1-1.2c-0.2-1-0.5-1.8-0.9-2.2c-0.5-0.5-1.2-0.7-2.3-0.7h-4.3
			v7.6h-4.3L23.4,169.4L23.4,169.4z M27.7,178.2h4.7c1,0,1.7-0.2,2.2-0.6c0.5-0.4,0.8-1.1,0.8-2.1s-0.2-1.6-0.8-2.1
			c-0.5-0.4-1.2-0.6-2.2-0.6h-4.7V178.2L27.7,178.2z"/>
		<path class="st0" d="M43.1,169.4h9.2c0.9,0,1.8,0.1,2.5,0.2c0.8,0.2,1.4,0.4,2,0.8c0.5,0.4,1,0.9,1.3,1.5c0.3,0.6,0.5,1.4,0.5,2.3
			c0,1-0.2,1.8-0.7,2.4c-0.5,0.7-1.1,1.2-2,1.6c1.2,0.3,2.1,0.9,2.7,1.8s0.9,1.9,0.9,3.1c0,1-0.2,1.8-0.6,2.5
			c-0.4,0.7-0.9,1.3-1.5,1.8c-0.6,0.4-1.4,0.8-2.2,1s-1.7,0.3-2.5,0.3h-9.4L43.1,169.4L43.1,169.4z M47.4,177.2h4.3
			c0.8,0,1.4-0.2,1.9-0.5s0.7-0.9,0.7-1.8c0-0.4-0.1-0.8-0.2-1.1s-0.4-0.5-0.7-0.7c-0.3-0.2-0.6-0.3-0.9-0.3s-0.7-0.1-1.1-0.1h-4
			L47.4,177.2L47.4,177.2z M47.4,185.5h4.6c0.4,0,0.8,0,1.2-0.1s0.7-0.2,1-0.4c0.3-0.2,0.5-0.4,0.7-0.8s0.3-0.7,0.3-1.2
			c0-1-0.3-1.7-0.8-2.1s-1.3-0.6-2.2-0.6h-4.7L47.4,185.5L47.4,185.5z"/>
		<path class="st0" d="M67.6,169.4h4.4l7.3,19.4h-4.4l-1.5-4.3H66l-1.5,4.3h-4.3C60.2,188.8,67.5,169.4,67.6,169.4z M67.1,181.3h5
			l-2.4-7.1h-0.1L67.1,181.3L67.1,181.3z"/>
		<path class="st0" d="M80.9,169.4h4.2l8.1,13h0.1v-13h4v19.4H93l-8.1-13h-0.1v13h-4L80.9,169.4L80.9,169.4z"/>
		<path class="st0" d="M107.8,179.2c0-1.4,0.2-2.8,0.7-4c0.4-1.2,1.1-2.3,1.9-3.3c0.8-0.9,1.8-1.6,3-2.2s2.5-0.8,4-0.8
			s2.8,0.3,4,0.8s2.2,1.2,3,2.2s1.4,2,1.9,3.3c0.4,1.2,0.7,2.6,0.7,4s-0.2,2.7-0.7,3.9c-0.4,1.2-1.1,2.3-1.9,3.2s-1.8,1.6-3,2.1
			s-2.5,0.8-4,0.8s-2.8-0.3-4-0.8s-2.2-1.2-3-2.1c-0.8-0.9-1.4-2-1.9-3.2C108,181.9,107.8,180.6,107.8,179.2z M112,179.2
			c0,0.8,0.1,1.6,0.3,2.4s0.5,1.5,0.9,2.1c0.4,0.6,1,1.1,1.6,1.5s1.5,0.6,2.4,0.6s1.8-0.2,2.4-0.6s1.2-0.9,1.6-1.5
			c0.4-0.6,0.7-1.3,0.9-2.1s0.3-1.6,0.3-2.4s-0.1-1.7-0.3-2.5c-0.2-0.8-0.5-1.5-0.9-2.1c-0.4-0.6-1-1.1-1.6-1.5
			c-0.7-0.4-1.5-0.6-2.4-0.6s-1.8,0.2-2.4,0.6s-1.2,0.9-1.6,1.5c-0.4,0.6-0.7,1.3-0.9,2.1S112,178.3,112,179.2z"/>
		<path class="st0" d="M142.8,175.9c-0.1-0.5-0.2-0.9-0.5-1.4s-0.6-0.8-0.9-1.1c-0.4-0.3-0.8-0.6-1.3-0.7s-1-0.3-1.5-0.3
			c-1,0-1.8,0.2-2.4,0.6s-1.2,0.9-1.6,1.5c-0.4,0.6-0.7,1.3-0.9,2.1s-0.3,1.6-0.3,2.5s0.1,1.6,0.3,2.4c0.2,0.8,0.5,1.5,0.9,2.1
			c0.4,0.6,1,1.1,1.6,1.5s1.5,0.6,2.4,0.6c1.3,0,2.3-0.4,3.1-1.2c0.7-0.8,1.2-1.9,1.4-3.1h4.1c-0.1,1.2-0.4,2.3-0.8,3.3
			s-1.1,1.8-1.8,2.5s-1.6,1.2-2.6,1.6c-1,0.4-2.1,0.6-3.3,0.6c-1.5,0-2.9-0.3-4-0.8s-2.2-1.2-3-2.1c-0.8-0.9-1.4-2-1.9-3.2
			c-0.4-1.2-0.6-2.6-0.6-3.9s0.2-2.8,0.6-4c0.4-1.2,1.1-2.3,1.9-3.3c0.8-0.9,1.8-1.6,3-2.2c1.2-0.5,2.5-0.8,4-0.8
			c1.1,0,2.1,0.1,3,0.5c0.9,0.3,1.8,0.8,2.6,1.4c0.8,0.6,1.4,1.3,1.9,2.2s0.8,1.9,0.9,3L142.8,175.9L142.8,175.9z"/>
		<path class="st0" d="M154.3,173h-5.8v-3.6h15.9v3.6h-5.8v15.8h-4.3L154.3,173L154.3,173z"/>
		<path class="st0" d="M165.8,179.2c0-1.4,0.2-2.8,0.6-4c0.4-1.2,1.1-2.3,1.9-3.3c0.8-0.9,1.8-1.6,3-2.2c1.2-0.5,2.5-0.8,4-0.8
			s2.9,0.3,4,0.8s2.2,1.2,3,2.2s1.4,2,1.9,3.3c0.4,1.2,0.6,2.6,0.6,4s-0.2,2.7-0.6,3.9c-0.4,1.2-1.1,2.3-1.9,3.2s-1.8,1.6-3,2.1
			c-1.2,0.5-2.5,0.8-4,0.8s-2.9-0.3-4-0.8s-2.2-1.2-3-2.1c-0.8-0.9-1.4-2-1.9-3.2C166,181.9,165.8,180.6,165.8,179.2z M170,179.2
			c0,0.8,0.1,1.6,0.3,2.4c0.2,0.8,0.5,1.5,0.9,2.1c0.4,0.6,1,1.1,1.6,1.5s1.5,0.6,2.4,0.6s1.8-0.2,2.4-0.6s1.2-0.9,1.6-1.5
			c0.4-0.6,0.7-1.3,0.9-2.1s0.3-1.6,0.3-2.4s-0.1-1.7-0.3-2.5c-0.2-0.8-0.5-1.5-0.9-2.1c-0.4-0.6-1-1.1-1.6-1.5
			c-0.7-0.4-1.5-0.6-2.4-0.6s-1.8,0.2-2.4,0.6s-1.2,0.9-1.6,1.5c-0.4,0.6-0.7,1.3-0.9,2.1S170,178.3,170,179.2z"/>
		<path class="st0" d="M187.8,169.4h9.1c0.9,0,1.8,0.1,2.5,0.2c0.8,0.2,1.4,0.4,2,0.8c0.5,0.4,1,0.9,1.3,1.5
			c0.3,0.6,0.4,1.4,0.4,2.3c0,1-0.2,1.8-0.7,2.4c-0.4,0.7-1.1,1.2-2,1.6c1.2,0.3,2.1,0.9,2.7,1.8s0.9,1.9,0.9,3.1
			c0,1-0.2,1.8-0.6,2.5s-0.9,1.3-1.5,1.8c-0.6,0.4-1.4,0.8-2.2,1c-0.8,0.2-1.7,0.3-2.5,0.3h-9.4L187.8,169.4L187.8,169.4z
			 M192,177.2h4.3c0.8,0,1.4-0.2,1.9-0.5s0.7-0.9,0.7-1.8c0-0.4-0.1-0.8-0.2-1.1c-0.2-0.3-0.4-0.5-0.6-0.7c-0.3-0.2-0.6-0.3-0.9-0.3
			c-0.4-0.1-0.7-0.1-1.1-0.1h-4V177.2L192,177.2z M192,185.5h4.6c0.4,0,0.8,0,1.2-0.1c0.4-0.1,0.7-0.2,1-0.4s0.5-0.4,0.7-0.8
			s0.3-0.7,0.3-1.2c0-1-0.3-1.7-0.8-2.1s-1.3-0.6-2.2-0.6h-4.6L192,185.5L192,185.5z"/>
		<path class="st0" d="M206.9,169.4h14.5v3.6h-10.3v4.2h9.4v3.3h-9.4v4.8h10.5v3.6h-14.8V169.4L206.9,169.4z"/>
		<path class="st0" d="M224.6,169.4h10.5c0.9,0,1.7,0.1,2.4,0.4c0.7,0.3,1.3,0.7,1.8,1.2s0.9,1.1,1.1,1.7c0.3,0.6,0.4,1.3,0.4,2.1
			c0,1.1-0.2,2.1-0.7,3c-0.5,0.8-1.3,1.5-2.4,1.9v0.1c0.5,0.1,1,0.4,1.3,0.7s0.6,0.7,0.8,1.1c0.2,0.4,0.4,0.9,0.5,1.4s0.2,1,0.2,1.5
			c0,0.3,0,0.7,0.1,1.1c0,0.4,0.1,0.8,0.1,1.3c0,0.4,0.1,0.8,0.2,1.2s0.2,0.7,0.4,1H237c-0.1-0.3-0.2-0.6-0.3-1
			c-0.1-0.4-0.1-0.8-0.2-1.2c0-0.4-0.1-0.8-0.1-1.2c0-0.4-0.1-0.8-0.1-1.2c-0.1-1-0.4-1.8-0.9-2.2s-1.2-0.7-2.3-0.7h-4.3v7.6h-4.3
			L224.6,169.4L224.6,169.4z M228.8,178.2h4.7c1,0,1.7-0.2,2.2-0.6s0.8-1.1,0.8-2.1s-0.2-1.6-0.8-2.1c-0.5-0.4-1.2-0.6-2.2-0.6h-4.7
			V178.2L228.8,178.2z"/>
	</g>
	<g>
		<rect x="59.5" y="16.7" class="st1" width="27.8" height="27.8"/>
		<path class="st2" d="M131.8,44.5L131.8,44.5c0,24.6-19.9,44.5-44.5,44.5l0,0V44.5H131.8z"/>
		<polygon class="st3" points="131.8,44.5 87.3,0 87.3,0 131.8,0 		"/>
		<path class="st0" d="M182.9,0c-24.6,0-44.5,19.9-44.5,44.5l0,0c0,24.6,19.9,44.5,44.5,44.5l0,0V0L182.9,0z"/>
	</g>
</g>
</svg>
